<!-- icon666.com - MILLIONS vector ICONS FREE --><svg id="Layer_1" enable-background="new 0 0 20 20" viewBox="0 0 20 20" xmlns="http://www.w3.org/2000/svg"><g fill="rgb(0,0,0)"><path d="m10 0c-5.5 0-10 4.5-10 10s4.5 10 10 10 10-4.5 10-10-4.5-10-10-10zm-4.7 16.4c.7-2 2.6-3.4 4.7-3.4 2.2 0 4.1 1.4 4.7 3.4-1.3 1-3 1.6-4.7 1.6-1.8 0-3.4-.6-4.7-1.6zm11-1.4c-1.2-2.4-3.6-4-6.3-4s-5.1 1.6-6.3 3.9c-1.1-1.3-1.7-3-1.7-4.9 0-4.4 3.6-8 8-8s8 3.6 8 8c0 1.9-.6 3.6-1.7 5z"></path><path d="m10 4c-1.7 0-3 1.3-3 3s1.3 3 3 3 3-1.3 3-3-1.3-3-3-3zm0 4c-.6 0-1-.4-1-1s.4-1 1-1 1 .4 1 1-.4 1-1 1z"></path></g></svg>